<svg xmlns="http://www.w3.org/2000/svg" viewBox="0 0 512 512"><defs><style>.cls-1{fill:#0ee514;}.cls-2{fill:none;stroke:#fff;stroke-miterlimit:10;stroke-width:15px;}</style></defs><title>Recurso 28finvxccxcx</title><g id="Capa_2" data-name="Capa 2"><g id="Capa_1-2" data-name="Capa 1"><rect width="512" height="512"/><path class="cls-1" d="M256,106H256c-82.7,0-150,67.28-150,150a148.92,148.92,0,0,0,28.56,87.92l-18.7,55.72,57.66-18.43A148.72,148.72,0,0,0,256,406c82.7,0,150-67.29,150-150S338.74,106,256,106Zm87.28,211.82c-3.62,10.22-18,18.69-29.44,21.17-7.84,1.67-18.07,3-52.54-11.29-44.08-18.26-72.46-63.06-74.68-66S168.85,238,168.85,216.49s10.93-32,15.34-36.5c3.62-3.7,9.6-5.38,15.33-5.38,1.86,0,3.53.09,5,.16,4.41.19,6.62.45,9.52,7.41,3.62,8.72,12.44,30.24,13.49,32.46s2.13,5.21.63,8.12-2.64,4.33-4.85,6.88-4.32,4.5-6.53,7.24c-2,2.38-4.31,4.93-1.76,9.33s11.36,18.7,24.34,30.25c16.74,14.9,30.32,19.67,35.17,21.69,3.62,1.5,7.93,1.14,10.58-1.67,3.35-3.62,7.5-9.62,11.72-15.52,3-4.24,6.78-4.77,10.76-3.27s25.48,12,29.89,14.2,7.31,3.26,8.38,5.12S346.94,307.58,343.32,317.82Z"/><path class="cls-2" d="M404,256.65A145.36,145.36,0,0,1,179.92,378.83l-66,20.81,21.5-66a145.35,145.35,0,1,1,268.63-77Z"/></g></g></svg>