<svg xmlns="http://www.w3.org/2000/svg" viewBox="0 0 512 512"><defs><style>.cls-1,.cls-3{fill:#fff;}.cls-2{fill:red;}.cls-3{font-size:54.72px;font-family:Poppins-Bold, Poppins;font-weight:700;}</style></defs><title>Recurso 27finvxccxcx</title><g id="Capa_2" data-name="Capa 2"><g id="Capa_1-2" data-name="Capa 1"><rect width="512" height="512"/><path class="cls-1" d="M256,106A150,150,0,1,0,406,256,150,150,0,0,0,256,106Zm12.51,250.59c-4.7,4.65-11.24,7-19.44,7-8.38,0-15-2.31-19.71-6.84s-7.11-11-7.11-19.14c0-8.41,2.34-14.92,7-19.35s11.28-6.61,19.84-6.61c8.29,0,14.85,2.27,19.5,6.76s7,11,7,19.2c0,7.95-2.38,14.34-7.09,19ZM314.88,229c-4.8,7.68-13.94,16.36-27.16,25.81-8.62,6.36-14.13,11.24-16.35,14.47-2.1,3-3.16,7.16-3.16,12.25v6a4.58,4.58,0,0,1-4.58,4.58H231.3a4.56,4.56,0,0,1-4.57-4.58v-8c0-9.28,2-17.51,6-24.43s11.18-14.16,21.49-21.72c9.57-6.84,15.91-12.4,18.87-16.56a22.54,22.54,0,0,0,4.25-13.34c0-5.31-1.88-9.22-5.74-11.95-4.05-2.88-9.91-4.34-17.39-4.34-13,0-28,4.17-44.65,12.4a4.58,4.58,0,0,1-6.12-2.07l-13.18-26.46A4.59,4.59,0,0,1,192.2,165a135.63,135.63,0,0,1,65.11-16.62c19.6,0,35.45,4.81,47.11,14.31s17.78,22.59,17.78,38.59c0,10.61-2.46,19.93-7.32,27.69Z"/><rect class="cls-2" x="318.88" y="114.28" width="139.25" height="94" rx="19.96"/><text class="cls-3" transform="translate(332.97 178.14)">FAQ</text></g></g></svg>