<svg xmlns="http://www.w3.org/2000/svg" viewBox="0 0 512 512"><defs><style>.cls-1{fill:#fff;}.cls-2,.cls-3{fill:red;}.cls-2{stroke:red;stroke-miterlimit:10;stroke-width:2px;}</style></defs><title>Recurso 26finvxccxcx</title><g id="Capa_2" data-name="Capa 2"><g id="Capa_1-2" data-name="Capa 1"><rect width="512" height="512"/><path class="cls-1" d="M179.83,229.63a49.81,49.81,0,1,1,49.8-49.8A49.86,49.86,0,0,1,179.83,229.63Z"/><path class="cls-1" d="M332.17,229.63A49.81,49.81,0,1,1,382,179.83,49.86,49.86,0,0,1,332.17,229.63Z"/><path class="cls-2" d="M344.48,272.11a42.34,42.34,0,0,1,11.85-29.39,67.28,67.28,0,0,1-75.2-18.95H231.51a84.88,84.88,0,0,1,33.28,67.39V382h85V335.1a8.79,8.79,0,1,1,17.58,0V382h23.44a8.79,8.79,0,0,0,8.78-8.79v-58.6H387A42.52,42.52,0,0,1,344.48,272.11Z"/><path class="cls-2" d="M399.55,314.5v0C399.5,314.49,399.51,314.49,399.55,314.5Z"/><path class="cls-1" d="M397.21,297H387a24.91,24.91,0,1,1,0-49.81,19.06,19.06,0,0,1,19,19v22A8.8,8.8,0,0,1,397.21,297Z"/><path class="cls-1" d="M217.76,235.49a67.24,67.24,0,0,1-62.09,7.23A42.45,42.45,0,0,1,125,314.59H112.45v58.6a8.79,8.79,0,0,0,8.78,8.79h23.44V335.1a8.79,8.79,0,1,1,17.58,0V382h85V291.16a67.4,67.4,0,0,0-29.45-55.67Z"/><path class="cls-1" d="M112.45,314.48v0C112.51,314.5,112.52,314.49,112.45,314.48Z"/><path class="cls-1" d="M106,288.23v-22a19.06,19.06,0,0,1,19-19A24.91,24.91,0,1,1,125,297H114.79A8.8,8.8,0,0,1,106,288.23Z"/><path class="cls-3" d="M262.27,111.29c0-.13,2.2-34.13,9.49-34s6.15,5.62,6.15,5.62l-6.42,28.36S268,115.36,262.27,111.29Z"/><path class="cls-3" d="M279.83,122.69c.09-.11,25-23.33,20.28-28.87s-8.25-1.2-8.25-1.2L274,115.55S273.07,120.86,279.83,122.69Z"/><path class="cls-3" d="M262.27,114.28s23.33,11.39,23.33,17.9-5.4,16.28-11.65,20.89-10.05,7.67-14.12,7.67-16.55-1.16-19.81-5.5-10.19-10.85-10.19-20.35-1.2-22.24,2.32-24.14a28.09,28.09,0,0,1,9.77-2.72c1.09,0,1.36-9.49,7.05-9.49s9.77.54,10.31,3.25S260.37,110,256,113.1a13.67,13.67,0,0,0-5.16,8.23s2.37,7.87,6.75,10.58,4.65,5.16,4.65,5.16,1.08,1.89-7.87,2.17-9,3.51-9,3.51-1.36,3.81,8.41,1.1,13-4.07,13-6.24-1.36-8.14-4.61-9.5-6.51-6.51-6-9.09S262.27,114.28,262.27,114.28Z"/><path class="cls-2" d="M204,324.45A45.8,45.8,0,0,1,188.94,322a36.25,36.25,0,0,1-12.61-7.39l9.11-10.9a30,30,0,0,0,19.14,7.08,9.75,9.75,0,0,0,5-1,3.32,3.32,0,0,0,1.73-3v-.17a3.2,3.2,0,0,0-.42-1.64,4.35,4.35,0,0,0-1.56-1.39,16.5,16.5,0,0,0-3-1.3c-1.26-.42-2.91-.86-4.93-1.31q-4.73-1.1-8.78-2.4a26.89,26.89,0,0,1-7-3.37,15.22,15.22,0,0,1-4.72-5.13,15.39,15.39,0,0,1-1.73-7.62v-.17a18.19,18.19,0,0,1,1.56-7.58,16.93,16.93,0,0,1,4.55-6,21.5,21.5,0,0,1,7.22-3.91,30.28,30.28,0,0,1,9.53-1.39,42.52,42.52,0,0,1,13.54,2,34.17,34.17,0,0,1,10.75,5.9l-8.18,11.59a33.43,33.43,0,0,0-8.31-4.34,25.18,25.18,0,0,0-8.22-1.48,7.39,7.39,0,0,0-4.43,1.1,3.25,3.25,0,0,0-1.48,2.69V281a3.32,3.32,0,0,0,.47,1.77,4.15,4.15,0,0,0,1.6,1.39,17.8,17.8,0,0,0,3.12,1.26c1.32.42,3,.86,5,1.31a72.77,72.77,0,0,1,9.15,2.56,27.67,27.67,0,0,1,7,3.58,14.53,14.53,0,0,1,4.39,5.1,15.54,15.54,0,0,1,1.51,7.11v.17a18.25,18.25,0,0,1-1.72,8.09,17.55,17.55,0,0,1-4.85,6,22.4,22.4,0,0,1-7.51,3.79A34.68,34.68,0,0,1,204,324.45Z"/><rect class="cls-1" x="321.84" y="286.68" width="10.33" height="10.33"/></g></g></svg>